<svg class="scroll-top__svg-circle--outline" xmlns="http://www.w3.org/2000/svg" width="30" height="30" viewBox="0 0 30 30">
    <path d="M30,29.9756H0v-30H30Z" transform="translate(0 0.0244)"></path>
    <path fill="#fff" d="M15.8789,5.2783a1.2746,1.2746,0,0,0-1.7578,0L12.3438,7.0557l-7.07,7.07a1.2746,1.2746,0,0,0,0,1.7578l1.7774,1.7773a1.2743,1.2743,0,0,0,1.7578,0L12.5,13.97v9.8047a1.2674,1.2674,0,0,0,1.25,1.25h2.5a1.2674,1.2674,0,0,0,1.25-1.25V13.97l3.6914,3.6914a1.2263,1.2263,0,0,0,1.7578,0l1.7774-1.7773a1.2746,1.2746,0,0,0,0-1.7578l-7.07-7.07Z" transform="translate(0 0.0244)"></path>
</svg>