<svg class="scroll-top__svg-circle--filled" xmlns="http://www.w3.org/2000/svg" width="30" height="30" viewBox="0 0 30 30">
    <path class="all-in-one__svg-arrow" fill="#fff" d="M15.8789,5.2539a1.2743,1.2743,0,0,0-1.7578,0L12.3438,7.0312l-7.07,7.07a1.2746,1.2746,0,0,0,0,1.7578l1.7774,1.7773a1.2743,1.2743,0,0,0,1.7578,0L12.5,13.9453V23.75A1.2674,1.2674,0,0,0,13.75,25h2.5a1.2674,1.2674,0,0,0,1.25-1.25V13.9453l3.6914,3.6914a1.2263,1.2263,0,0,0,1.7578,0l1.7774-1.7773a1.2746,1.2746,0,0,0,0-1.7578l-7.07-7.07Z" transform="translate(0 0)"></path>
    <path class="all-in-one__svg-fill" d="M25.0781,14.9805a1.1925,1.1925,0,0,0-.3515-.8789l-7.07-7.07L15.8789,5.2539a1.2743,1.2743,0,0,0-1.7578,0L12.3437,7.0312l-7.07,7.07a1.2746,1.2746,0,0,0,0,1.7578l1.7774,1.7773a1.2743,1.2743,0,0,0,1.7578,0L12.5,13.9453V23.75A1.2674,1.2674,0,0,0,13.75,25h2.5a1.2674,1.2674,0,0,0,1.25-1.25V13.9453l3.6914,3.6914a1.2263,1.2263,0,0,0,1.7578,0l1.7774-1.7773A1.1928,1.1928,0,0,0,25.0781,14.9805ZM30,15a14.6738,14.6738,0,0,1-2.0117,7.5293,14.9332,14.9332,0,0,1-5.459,5.459A14.6738,14.6738,0,0,1,15,30a14.6738,14.6738,0,0,1-7.5293-2.0117,14.9332,14.9332,0,0,1-5.459-5.459A14.6738,14.6738,0,0,1,0,15,14.6738,14.6738,0,0,1,2.0117,7.4707a14.9332,14.9332,0,0,1,5.459-5.459A14.6738,14.6738,0,0,1,15,0a14.6738,14.6738,0,0,1,7.5293,2.0117,14.9332,14.9332,0,0,1,5.459,5.459A14.6738,14.6738,0,0,1,30,15Z" transform="translate(0 0)"></path>
</svg>