<svg class="scroll-top__svg-circle--outline" width="30" height="30" viewBox="0 0 41.5 41.5" xmlns="http://www.w3.org/2000/svg">
    <path class="scroll-top__svg-circle--filled" d="M33.49,26.59a.69.69,0,0,1-.5-.2l-8.31-7.7-8.31,7.7a.75.75,0,0,1-1.06,0,.76.76,0,0,1,0-1.06l8.82-8.17a.74.74,0,0,1,1,0L34,25.29a.74.74,0,0,1,0,1.06A.72.72,0,0,1,33.49,26.59Z" transform="translate(-3.93 -4.01)"></path>
    <path class="scroll-top__svg-circle--filled" d="M33.49,32.59a.69.69,0,0,1-.5-.2l-8.31-7.7-8.31,7.7a.74.74,0,0,1-1.06,0,.76.76,0,0,1,0-1.06l8.82-8.17a.74.74,0,0,1,1,0L34,31.29a.74.74,0,0,1,0,1.06A.72.72,0,0,1,33.49,32.59Z" transform="translate(-3.93 -4.01)"></path>
    <path class="all-in-one__svg-fill" d="M24.68,45.51A20.75,20.75,0,1,1,45.43,24.76,20.78,20.78,0,0,1,24.68,45.51Zm0-40A19.25,19.25,0,1,0,43.93,24.76,19.26,19.26,0,0,0,24.68,5.51Z" transform="translate(-3.93 -4.01)"></path>
</svg>