<svg class="scroll-top__svg-circle--outline" width="30" height="30" viewBox="0 0 41.5 41.5" xmlns="http://www.w3.org/2000/svg">
    <path class="all-in-one__svg-arrow" fill="#fff" d="M33.49,26.59a.69.69,0,0,1-.5-.2l-8.31-7.7-8.31,7.7a.75.75,0,0,1-1.06,0,.76.76,0,0,1,0-1.06l8.82-8.17a.74.74,0,0,1,1,0L34,25.29a.74.74,0,0,1,0,1.06A.72.72,0,0,1,33.49,26.59Z" transform="translate(-3.93 -4.01)"></path>
    <path class="all-in-one__svg-arrow" fill="#fff" d="M33.49,32.59a.69.69,0,0,1-.5-.2l-8.31-7.7-8.31,7.7a.74.74,0,0,1-1.06,0,.76.76,0,0,1,0-1.06l8.82-8.17a.74.74,0,0,1,1,0L34,31.29a.74.74,0,0,1,0,1.06A.72.72,0,0,1,33.49,32.59Z" transform="translate(-3.93 -4.01)"></path>
    <path   d="M44.68,4h-40a.74.74,0,0,0-.75.75v40a.75.75,0,0,0,.75.75h40a.76.76,0,0,0,.75-.75v-40A.75.75,0,0,0,44.68,4ZM15.35,31.3l8.82-8.18a.74.74,0,0,1,1,0L34,31.3a.74.74,0,0,1,0,1.06.75.75,0,0,1-1.06,0l-8.3-7.71L16.37,32.4a.76.76,0,0,1-.51.2.79.79,0,0,1-.55-.24A.75.75,0,0,1,15.35,31.3Zm0-6,8.82-8.18a.74.74,0,0,1,1,0L34,25.3a.74.74,0,0,1,0,1.06.75.75,0,0,1-1.06,0l-8.3-7.71L16.37,26.4a.76.76,0,0,1-.51.2.79.79,0,0,1-.55-.24A.75.75,0,0,1,15.35,25.3Z" transform="translate(-3.93 -4.01)"></path>
</svg>