<svg class="scroll-top__svg-circle--outline" width="30" height="30" viewBox="0 0 41.5 41.5" xmlns="http://www.w3.org/2000/svg">
    <path class="all-in-one__svg-arrow" d="M15.86,29.59a.75.75,0,0,1-.51-1.3l8.82-8.17a.74.74,0,0,1,1,0L34,28.29a.74.74,0,0,1,0,1.06.73.73,0,0,1-1,0l-8.31-7.7-8.31,7.7A.7.7,0,0,1,15.86,29.59Z" transform="translate(-3.93 -4.01)"></path>
    <path class="all-in-one__svg-fill" d="M44.68,45.51h-40a.75.75,0,0,1-.75-.75v-40A.74.74,0,0,1,4.68,4h40a.75.75,0,0,1,.75.75v40A.76.76,0,0,1,44.68,45.51ZM5.43,44h38.5V5.51H5.43Z" transform="translate(-3.93 -4.01)"></path>
</svg>