<svg class="scroll-top__svg-circle--outline" width="30" height="30" viewBox="0 0 41.5 41.5" xmlns="http://www.w3.org/2000/svg">
    <path class="all-in-one__svg-arrow" d="M33.49,30.85a2,2,0,0,1-1.36-.54L24.68,23.4l-7.46,6.91a2,2,0,0,1-2.72-2.93l8.82-8.18a2,2,0,0,1,2.72,0l8.81,8.18a2,2,0,0,1-1.36,3.47Z" transform="translate(-3.93 -4.01)"></path>
    <path class="all-in-one__svg-fill" d="M44.68,45.51h-40a.75.75,0,0,1-.75-.75v-40A.74.74,0,0,1,4.68,4h40a.75.75,0,0,1,.75.75v40A.76.76,0,0,1,44.68,45.51ZM5.43,44h38.5V5.51H5.43Z" transform="translate(-3.93 -4.01)"></path>
</svg>