<svg class="scroll-top__svg-circle--outline" width="30" height="30" viewBox="0 0 40 40" xmlns="http://www.w3.org/2000/svg">
    <path class="all-in-one__svg-arrow" fill="#fff" d="M33.49,29.84a2,2,0,0,1-1.36-.53L24.68,22.4l-7.46,6.91a2,2,0,0,1-2.72-2.93l8.82-8.18a2,2,0,0,1,2.72,0l8.82,8.18a2,2,0,0,1-1.37,3.46Z" transform="translate(-4.68 -4.76)"></path>
    <path class="all-in-one__svg-fill" d="M24.68,4.76a20,20,0,1,0,20,20A20,20,0,0,0,24.68,4.76ZM35,29.21a2,2,0,0,1-2.83.1L24.68,22.4l-7.46,6.91a2,2,0,0,1-2.72-2.93l8.82-8.18a2,2,0,0,1,2.72,0l8.82,8.18A2,2,0,0,1,35,29.21Z" transform="translate(-4.68 -4.76)"></path>
</svg>