<svg class="scroll-top__svg-circle--outline" width="30" height="30" viewBox="0 0 40 40" xmlns="http://www.w3.org/2000/svg">
    <path class="all-in-one__svg-arrow" fill="#fff" d="M33.49,26.59a.69.69,0,0,1-.5-.2l-8.31-7.7-8.31,7.7a.75.75,0,0,1-1.06,0,.76.76,0,0,1,0-1.06l8.82-8.17a.74.74,0,0,1,1,0L34,25.29a.74.74,0,0,1,0,1.06A.72.72,0,0,1,33.49,26.59Z" transform="translate(-4.68 -4.76)"></path>
    <path class="all-in-one__svg-arrow" fill="#fff" d="M33.49,32.59a.69.69,0,0,1-.5-.2l-8.31-7.7-8.31,7.7a.74.74,0,0,1-1.06,0,.76.76,0,0,1,0-1.06l8.82-8.17a.74.74,0,0,1,1,0L34,31.29a.74.74,0,0,1,0,1.06A.72.72,0,0,1,33.49,32.59Z" transform="translate(-4.68 -4.76)"></path>
    <path  d="M24.68,4.76a20,20,0,1,0,20,20A20,20,0,0,0,24.68,4.76ZM34,32.35a.72.72,0,0,1-.55.24.69.69,0,0,1-.5-.2l-8.31-7.7-8.31,7.7a.74.74,0,0,1-1.06,0,.76.76,0,0,1,0-1.06l8.82-8.17a.74.74,0,0,1,1,0L34,31.29A.74.74,0,0,1,34,32.35Zm0-6a.72.72,0,0,1-.55.24.69.69,0,0,1-.5-.2l-8.31-7.7-8.31,7.7a.74.74,0,0,1-1.06,0,.76.76,0,0,1,0-1.06l8.82-8.17a.74.74,0,0,1,1,0L34,25.29A.74.74,0,0,1,34,26.35Z" transform="translate(-4.68 -4.76)"></path>
</svg>