<svg width="42" height="42" fill="none" xmlns="http://www.w3.org/2000/svg"><g clip-path="url(#a)"><path d="M25.59 17.145a1.89 1.89 0 0 1-1.158 1.74 1.865 1.865 0 0 1-2.043-.407 1.886 1.886 0 0 1-.407-2.053 1.868 1.868 0 0 1 3.057-.611c.352.353.55.831.55 1.33zm-7.953 7.064a1.22 1.22 0 0 0-1.13.758 1.235 1.235 0 0 0 .265 1.34 1.22 1.22 0 0 0 2.088-.87c0-.325-.13-.638-.359-.868-.229-.23-.54-.36-.864-.36zm9.23-.218a1.543 1.543 0 0 0-1.433.958 1.562 1.562 0 0 0 .333 1.697 1.546 1.546 0 0 0 2.645-1.1 1.56 1.56 0 0 0-.454-1.099 1.545 1.545 0 0 0-1.094-.456h.004zm9.136-3.027c0 8.29-6.729 15.036-15 15.036S6 29.255 6 20.964a14.978 14.978 0 0 1 1.126-5.72.683.683 0 0 1 .787-.4c.104.025.2.075.282.145a4.843 4.843 0 0 0 5.177.718 4.862 4.862 0 0 0 2.055-1.794c.5-.782.768-1.693.77-2.623.001-.778-.186-1.544-.546-2.233a.686.686 0 0 1 .175-.855.677.677 0 0 1 .869.017 3.115 3.115 0 0 0 2.026.753 3.124 3.124 0 0 0 1.943-.688 3.15 3.15 0 0 0 1.098-1.751.683.683 0 0 1 .73-.533c3.696.366 7.125 2.1 9.621 4.865a15.091 15.091 0 0 1 3.884 10.095l.006.004zm-1.359 0a13.725 13.725 0 0 0-3.35-8.971 13.601 13.601 0 0 0-8.384-4.565 4.529 4.529 0 0 1-1.646 2.106c-.748.52-1.634.8-2.543.804-.429 0-.855-.062-1.267-.184a6.268 6.268 0 0 1-.759 4.29 6.227 6.227 0 0 1-2.332 2.285 6.19 6.19 0 0 1-6.286-.145 13.62 13.62 0 0 0-.718 4.38c0 7.538 6.116 13.67 13.64 13.67 7.525 0 13.642-6.132 13.642-13.67h.003z" fill="#212121"/></g><defs><clipPath id="a"><path fill="#fff" transform="translate(6 6)" d="M0 0h30v30H0z"/></clipPath></defs></svg>