<svg width="42" height="42" fill="none" xmlns="http://www.w3.org/2000/svg"><path fill-rule="evenodd" clip-rule="evenodd" d="M9.341 7.35a.838.838 0 0 0-.84.84v23.898c0 .465.375.84.84.84H31.11c.464 0 .84-.374.844-.841V8.19a.838.838 0 0 0-.84-.84H9.34zm-1.68.84c0-.93.751-1.68 1.68-1.68h21.773c.93 0 1.68.75 1.68 1.68v23.9a1.685 1.685 0 0 1-1.684 1.678H9.34c-.929 0-1.68-.75-1.68-1.68V8.19z" fill="#212121"/><path d="M19.09 15.33h6.132a.61.61 0 0 1 .609.61v6.131c0 .52-.42.94-.941.94a.943.943 0 0 1-.94-.957l.062-3.17a.162.162 0 0 0-.277-.118l-8.253 8.253a.94.94 0 0 1-1.327 0l-.013-.013a.94.94 0 0 1 0-1.327l8.257-8.257a.162.162 0 0 0-.117-.277l-3.171.063a.938.938 0 1 1-.021-1.878zM11.76 11.55a.63.63 0 1 0 0-1.26.63.63 0 0 0 0 1.26zM13.86 11.55a.63.63 0 1 0 0-1.26.63.63 0 0 0 0 1.26zM15.96 11.55a.63.63 0 1 0 0-1.26.63.63 0 0 0 0 1.26z" fill="#212121"/></svg>