<svg width="42" height="42" fill="none" xmlns="http://www.w3.org/2000/svg"><path fill-rule="evenodd" clip-rule="evenodd" d="M8.153 7.001a.838.838 0 0 0-.84.84v24.877c0 .465.374.84.84.84H32.05c.462 0 .84-.376.84-.84V7.841a.838.838 0 0 0-.84-.84H8.153zm-1.68.84c0-.929.75-1.68 1.68-1.68H32.05c.929 0 1.68.751 1.68 1.68v24.877c0 .93-.756 1.68-1.68 1.68H8.153c-.93 0-1.68-.75-1.68-1.68V7.841z" fill="#212121"/><g opacity=".5" fill="#212121"><path d="M29.086 22.541h-9.24v2.94h9.24v-2.94z"/><path fill-rule="evenodd" clip-rule="evenodd" d="M19.426 22.541a.42.42 0 0 1 .42-.42h9.24a.42.42 0 0 1 .42.42v2.94a.42.42 0 0 1-.42.42h-9.24a.42.42 0 0 1-.42-.42v-2.94zm.84.42v2.1h8.4v-2.1h-8.4z"/><path fill-rule="evenodd" clip-rule="evenodd" d="M21.034 24.058a.42.42 0 0 1 .42-.42h6.372a.42.42 0 0 1 0 .84h-6.372a.42.42 0 0 1-.42-.42z"/></g><g opacity=".5" fill="#212121"><path fill-rule="evenodd" clip-rule="evenodd" d="M22.938 13.55a.42.42 0 0 1 .42-.42h5.3a.42.42 0 1 1 0 .84h-5.3a.42.42 0 0 1-.42-.42zM22.938 17.32a.42.42 0 0 1 .42-.42h5.3a.42.42 0 1 1 0 .84h-5.3a.42.42 0 0 1-.42-.42z"/><path d="M20.724 19.32H12.66a.794.794 0 0 1-.79-.79V12.45c0-.433.357-.79.79-.79h8.064c.432 0 .79.357.79.79v6.086a.79.79 0 0 1-.79.785z"/></g><path d="M28.85 30.257h-3.348a.794.794 0 0 1-.79-.79v-.714c0-.432.358-.79.79-.79h3.348c.432 0 .79.358.79.79v.714c0 .433-.358.79-.79.79zM23.697 30.257h-3.348a.794.794 0 0 1-.79-.79v-.714c0-.432.358-.79.79-.79h3.348c.432 0 .79.358.79.79v.714c0 .433-.354.79-.79.79z" fill="#212121"/></svg>