<svg width="42" height="42" fill="none" xmlns="http://www.w3.org/2000/svg"><path fill-rule="evenodd" clip-rule="evenodd" d="M8.304 12.99a.838.838 0 0 0-.84.84V34.37c0 .465.375.84.84.84h23.898a.84.84 0 0 0 .84-.84V13.83a.838.838 0 0 0-.84-.84H8.304zm-1.68.84c0-.928.75-1.68 1.68-1.68h23.898c.93 0 1.68.752 1.68 1.68V34.37c0 .93-.756 1.68-1.68 1.68H8.304c-.93 0-1.68-.751-1.68-1.68V13.83zM9.647 7.67a.42.42 0 0 1 .42-.42h5.078a.42.42 0 0 1 0 .84h-5.077a.42.42 0 0 1-.42-.42zM16.469 7.67a.42.42 0 0 1 .42-.42h4.628a.42.42 0 0 1 0 .84H16.89a.42.42 0 0 1-.42-.42z" fill="#212121"/><path opacity=".5" fill-rule="evenodd" clip-rule="evenodd" d="M23.016 7.67a.42.42 0 0 1 .42-.42h4.481a.42.42 0 1 1 0 .84h-4.481a.42.42 0 0 1-.42-.42z" fill="#212121"/><path fill-rule="evenodd" clip-rule="evenodd" d="M8.001 5.07a.838.838 0 0 0-.84.84v3.78c0 .465.375.84.84.84H31.9c.465 0 .84-.379.84-.84V5.91a.838.838 0 0 0-.84-.84H8.001zm-1.68.84c0-.93.751-1.68 1.68-1.68H31.9c.93 0 1.68.75 1.68 1.68v3.78c0 .924-.75 1.68-1.68 1.68H8.001c-.929 0-1.68-.751-1.68-1.68V5.91zM10.286 17.048a.42.42 0 0 1 .42-.42h18.216a.42.42 0 0 1 0 .84H10.706a.42.42 0 0 1-.42-.42zM10.286 21.193a.42.42 0 0 1 .42-.42h18.216a.42.42 0 0 1 0 .84H10.706a.42.42 0 0 1-.42-.42zM10.18 25.335a.42.42 0 0 1 .42-.42h15.465a.42.42 0 0 1 0 .84H10.601a.42.42 0 0 1-.42-.42zM10.18 29.48a.42.42 0 0 1 .42-.42h10.236a.42.42 0 0 1 0 .84H10.601a.42.42 0 0 1-.42-.42z" fill="#212121"/></svg>