<svg width="42" height="42" fill="none" xmlns="http://www.w3.org/2000/svg"><path d="m10.317 19.924.342.695a.23.23 0 0 0 .178.128l.765.11c.196.029.271.267.132.406l-.555.541a.23.23 0 0 0-.068.21l.132.762a.238.238 0 0 1-.345.25l-.684-.36a.241.241 0 0 0-.22 0l-.684.36a.238.238 0 0 1-.345-.25l.131-.762a.23.23 0 0 0-.067-.21l-.556-.54a.237.237 0 0 1 .132-.407l.765-.11a.239.239 0 0 0 .178-.128l.342-.695a.24.24 0 0 1 .427 0zM14.607 19.924l.342.695a.23.23 0 0 0 .178.128l.766.11c.195.029.27.267.131.406l-.555.541a.23.23 0 0 0-.068.21l.132.762a.238.238 0 0 1-.345.25l-.684-.36a.241.241 0 0 0-.22 0l-.684.36a.238.238 0 0 1-.345-.25l.131-.762a.23.23 0 0 0-.067-.21l-.556-.54a.237.237 0 0 1 .132-.407l.765-.11a.239.239 0 0 0 .178-.128l.342-.695c.09-.174.342-.174.427 0zM20.72 18.19l.77 1.557a.23.23 0 0 0 .177.128l1.72.249c.195.029.27.267.131.406l-1.242 1.21a.23.23 0 0 0-.068.21l.292 1.713a.238.238 0 0 1-.345.249l-1.538-.808a.241.241 0 0 0-.22 0l-1.539.808a.238.238 0 0 1-.345-.25l.292-1.712a.23.23 0 0 0-.068-.21l-1.242-1.21a.237.237 0 0 1 .131-.406l1.72-.25a.239.239 0 0 0 .178-.127l.769-1.556a.24.24 0 0 1 .427 0zM26.462 19.924l.342.695a.23.23 0 0 0 .178.128l.765.11c.196.029.27.267.132.406l-.556.541a.229.229 0 0 0-.067.21l.131.762a.238.238 0 0 1-.345.25l-.683-.36a.241.241 0 0 0-.221 0l-.684.36a.238.238 0 0 1-.345-.25l.132-.762a.23.23 0 0 0-.068-.21l-.555-.54a.237.237 0 0 1 .132-.407l.765-.11a.239.239 0 0 0 .178-.128l.342-.695a.24.24 0 0 1 .427 0zM30.937 19.924l.342.695a.23.23 0 0 0 .178.128l.765.11c.196.029.27.267.132.406l-.552.541a.23.23 0 0 0-.068.21l.132.762a.238.238 0 0 1-.345.25l-.684-.36a.241.241 0 0 0-.22 0l-.684.36a.238.238 0 0 1-.345-.25l.131-.762a.23.23 0 0 0-.067-.21l-.556-.54a.237.237 0 0 1 .132-.407l.765-.11a.239.239 0 0 0 .178-.128l.342-.695a.237.237 0 0 1 .424 0z" fill="#212121"/><path fill-rule="evenodd" clip-rule="evenodd" d="M20.58 35.7c8.119 0 14.7-6.582 14.7-14.7 0-8.119-6.581-14.7-14.7-14.7-8.118 0-14.7 6.581-14.7 14.7s6.581 14.7 14.7 14.7zm0 .84c8.583 0 15.54-6.957 15.54-15.54 0-8.582-6.957-15.54-15.54-15.54-8.582 0-15.54 6.958-15.54 15.54 0 8.582 6.958 15.54 15.54 15.54z" fill="#212121"/></svg>