<svg width="42" height="42" fill="none" xmlns="http://www.w3.org/2000/svg"><path fill-rule="evenodd" clip-rule="evenodd" d="M19.017 6.51c-7.654 0-13.86 6.205-13.86 13.86 0 7.655 6.206 13.86 13.86 13.86 7.655 0 13.86-6.205 13.86-13.86 0-7.655-6.205-13.86-13.86-13.86zm-14.7 13.86c0-8.119 6.582-14.7 14.7-14.7 8.119 0 14.7 6.581 14.7 14.7 0 8.118-6.581 14.7-14.7 14.7-8.118 0-14.7-6.582-14.7-14.7z" fill="#212121"/><path d="m14.255 17.03 4.334-4.334c.24-.239.622-.239.861 0l4.335 4.335a.94.94 0 0 1 0 1.327.937.937 0 0 1-1.34-.013l-2.197-2.289a.161.161 0 0 0-.277.114v11.68c0 .52-.42.94-.94.94h-.022a.94.94 0 0 1-.94-.94V16.174a.161.161 0 0 0-.278-.113l-2.197 2.284a.937.937 0 0 1-1.34.013.933.933 0 0 1 0-1.327z" fill="#212121"/><path fill-rule="evenodd" clip-rule="evenodd" d="M19.302 12.845a.396.396 0 0 0-.564 0l-4.335 4.334a.723.723 0 0 0 0 1.03l.001.001a.727.727 0 0 0 1.04-.01l2.196-2.285a.371.371 0 0 1 .638.259V27.85c0 .405.326.73.731.73h.021a.73.73 0 0 0 .731-.73V16.17c0-.333.405-.503.639-.259l2.197 2.29c.28.292.748.3 1.04.008a.73.73 0 0 0 0-1.03l-4.335-4.334zm-.861-.297a.816.816 0 0 1 1.158 0l4.334 4.334a1.15 1.15 0 0 1 0 1.624 1.147 1.147 0 0 1-1.64-.015l-2.112-2.201v11.56a1.15 1.15 0 0 1-1.15 1.15h-.022a1.15 1.15 0 0 1-1.15-1.15V16.294l-2.113 2.197a1.147 1.147 0 0 1-1.64.015 1.143 1.143 0 0 1 0-1.624l4.335-4.334zm-.498 3.658z" fill="#212121"/></svg>