<svg width="42" height="42" fill="none" xmlns="http://www.w3.org/2000/svg"><path fill-rule="evenodd" clip-rule="evenodd" d="M19.95 13.44a6.72 6.72 0 1 0 0 13.44 6.72 6.72 0 0 0 0-13.44zm-8.4 6.72a8.4 8.4 0 1 1 16.8 0 8.4 8.4 0 0 1-16.8 0z" fill="#212121"/><path fillRule="evenodd" clip-rule="evenodd" d="M19.95 7.35c-7.076 0-12.81 5.734-12.81 12.81 0 7.076 5.734 12.81 12.81 12.81 1.888 0 3.677-.407 5.29-1.139a.42.42 0 1 1 .347.765 13.611 13.611 0 0 1-5.637 1.214c-7.54 0-13.65-6.11-13.65-13.65S12.41 6.51 19.95 6.51 33.6 12.62 33.6 20.16c0 2.257-.55 4.39-1.521 6.266a.42.42 0 0 1-.746-.386c.91-1.76 1.427-3.76 1.427-5.88 0-7.076-5.734-12.81-12.81-12.81z" fill="#212121"/><path d="M33.81 34.65a.626.626 0 0 1-.89 0l-8.32-8.32c-.03-.03-.03-.076 0-.1l.789-.79c.03-.03.075-.03.1 0l8.32 8.32a.626.626 0 0 1 0 .89z" fill="#212121"/></svg>