<svg width="42" height="42" fill="none" xmlns="http://www.w3.org/2000/svg"><path fill-rule="evenodd" clip-rule="evenodd" d="M5.91 13.818c-.41 0-.74.332-.74.74v11.57c0 .41.332.74.74.74h28.719a.734.734 0 0 0 .735-.736V14.557c0-.41-.332-.739-.74-.739H5.91zm-1.58.74c0-.87.704-1.58 1.58-1.58h28.715c.87 0 1.579.704 1.579 1.58v11.574c0 .87-.705 1.575-1.575 1.575H5.909c-.87 0-1.579-.703-1.579-1.579v-11.57z" fill="#212121"/><path d="M14.101 20.53a.306.306 0 0 1-.298.224h-3.648l.087.399h3.336c.187 0 .337.187.287.373l-.062.299a.69.69 0 0 1 .398.622.696.696 0 1 1-1.394 0 .74.74 0 0 1 .199-.497h-2.602a.753.753 0 0 1 .212.497.696.696 0 1 1-1.394 0c0-.248.136-.473.348-.597l-.884-4.283h-.859a.288.288 0 0 1-.299-.298v-.2c0-.161.125-.298.3-.298h1.269c.137 0 .261.112.299.249l.112.547h4.88c.199 0 .336.187.298.374l-.585 2.59z" fill="#212121"/><path fill-rule="evenodd" clip-rule="evenodd" d="M17.824 19.345a.42.42 0 0 1 .42-.42h13.63a.42.42 0 1 1 0 .84h-13.63a.42.42 0 0 1-.42-.42zM17.64 21.61a.42.42 0 0 1 .42-.42h13.624a.42.42 0 1 1 0 .84H18.06a.42.42 0 0 1-.42-.42z" fill="#212121"/></svg>