<svg width="42" height="42" fill="none" xmlns="http://www.w3.org/2000/svg"><g clip-path="url(#a)" fill="#212121"><path fillRule="evenodd" clip-rule="evenodd" d="M20.576 5.88c-8.117 0-14.696 6.579-14.696 14.7 0 8.12 6.579 14.7 14.7 14.7 8.12 0 14.699-6.578 14.7-14.698v-.002l.076-8.851h1.094a.651.651 0 0 0 .561-.977l-.8-1.384-.801-1.383a.653.653 0 0 0-1.128 0h.013l-.801 1.383-.801 1.384a.65.65 0 0 0 .562.977h1.238l-.077 8.847v.004c0 7.644-6.192 13.836-13.836 13.836S6.744 28.224 6.744 20.58 12.936 6.744 20.576 6.744c2.704 0 5.22.772 7.35 2.11a.432.432 0 0 0 .46-.732 14.63 14.63 0 0 0-7.81-2.242z"/><path d="M20.511 28.88v-17h1.11v17h-1.11zm3.469-11.727a1.935 1.935 0 0 0-.893-1.461c-.522-.35-1.18-.525-1.974-.525-.568 0-1.06.088-1.474.266-.415.172-.737.411-.967.717a1.672 1.672 0 0 0-.338 1.03c0 .322.077.601.23.836.158.235.363.432.615.59.257.156.532.286.825.393.293.102.575.186.845.252l1.353.345c.441.107.894.25 1.359.432.464.181.895.42 1.291.717.397.297.717.664.96 1.102.248.439.372.963.372 1.574 0 .77-.203 1.455-.608 2.052-.402.598-.985 1.07-1.752 1.415-.761.345-1.683.518-2.765.518-1.037 0-1.934-.162-2.69-.485-.758-.323-1.351-.781-1.78-1.375-.427-.597-.664-1.306-.71-2.125h2.097c.04.492.203.901.487 1.229.288.323.656.564 1.102.724.45.155.944.232 1.48.232.591 0 1.116-.09 1.576-.272.464-.186.83-.443 1.095-.77.266-.333.4-.72.4-1.163 0-.402-.118-.732-.352-.99-.23-.256-.543-.468-.94-.637a9.31 9.31 0 0 0-1.332-.445l-1.636-.438c-1.11-.296-1.988-.732-2.637-1.308-.645-.575-.967-1.337-.967-2.284 0-.784.216-1.468.649-2.052.433-.585 1.019-1.038 1.758-1.362.739-.327 1.573-.491 2.502-.491.937 0 1.764.162 2.48.485.722.323 1.29.768 1.705 1.335.415.562.63 1.208.649 1.938H23.98z"/></g><defs><clipPath id="a"><path fill="#fff" transform="translate(5.88 5.88)" d="M0 0h31.92v29.4H0z"/></clipPath></defs></svg>