<svg width="42" height="42" fill="none" xmlns="http://www.w3.org/2000/svg"><path fill-rule="evenodd" clip-rule="evenodd" d="M7.98 7.14a.838.838 0 0 0-.84.84v25.717c0 .465.375.84.84.84h25.716c.465 0 .84-.378.84-.84V7.98a.838.838 0 0 0-.84-.84H7.98zm-1.68.84c0-.93.75-1.68 1.68-1.68h25.716c.93 0 1.68.75 1.68 1.68v25.717c0 .924-.75 1.68-1.68 1.68H7.98c-.93 0-1.68-.751-1.68-1.68V7.98z" fill="#212121"/><path d="m27.59 20.391-10.702-6.178a.99.99 0 0 0-1 0c-.31.18-.5.504-.5.865v12.356c0 .362.185.685.5.866.156.088.328.134.5.134s.345-.046.5-.134l1.554-.9a1.777 1.777 0 0 1-.151-.881l-1.823 1.05a.161.161 0 0 1-.16 0 .156.156 0 0 1-.08-.139V15.078c0-.08.051-.122.08-.139.021-.008.047-.02.084-.02.026 0 .05.004.08.02l10.698 6.179c.067.037.08.105.08.138a.153.153 0 0 1-.08.139l-1.42.819c.072.063.139.134.198.21.117.16.189.336.226.516l1.42-.819a.997.997 0 0 0-.004-1.73z" fill="#212121"/><path d="M25.225 27.615c.32-.23.487-.638.4-1.046-.14-.663-.354-2.272-.017-2.839.218-.365.235-.74 0-1.063a1.031 1.031 0 0 0-1.718.08c-.101.168-.185.353-.252.559l-1.886-2.587c-.294-.408-.92-.517-1.327-.223-.412.298-.5.912-.194 1.332l1.26 1.73c-.503-.067-1.096.31-1.15 1.004-.576.042-.945.634-.874 1.07-.966.467-.957 1.282-.32 2.16l.207.272c.78 1.076 1.508.941 2.226 1.664.18.18.462.201.668.05l2.977-2.163zM26.998 28.657l-.605-.832a.513.513 0 0 0-.718-.113l-3.33 2.423a.513.513 0 0 0-.114.718l.605.832a.513.513 0 0 0 .718.113l3.33-2.423a.511.511 0 0 0 .114-.718z" fill="#212121"/></svg>