<svg width="106" height="16" viewBox="0 0 106 16" fill="none" xmlns="http://www.w3.org/2000/svg">
<path fillRule="evenodd" clip-rule="evenodd" d="M2.11456 9.06491L1.42602 8.3714C-0.47534 6.45632 -0.475337 3.35138 1.42602 1.43631C3.32739 -0.478766 6.4101 -0.478766 8.31147 1.43631L9.00001 2.12981L9.68855 1.4363C11.5899 -0.478768 14.6726 -0.478766 16.574 1.43631C18.4754 3.35138 18.4754 6.45633 16.574 8.3714L15.8855 9.06491L9 16L2.11456 9.06491Z" fill="#5C5F62"/>
<path fillRule="evenodd" clip-rule="evenodd" d="M24.1146 9.06491L23.426 8.3714C21.5247 6.45632 21.5247 3.35138 23.426 1.43631C25.3274 -0.478766 28.4101 -0.478766 30.3115 1.43631L31 2.12981L31.6885 1.4363C33.5899 -0.478768 36.6726 -0.478766 38.574 1.43631C40.4754 3.35138 40.4754 6.45633 38.574 8.3714L37.8855 9.06491L31 16L24.1146 9.06491Z" fill="#5C5F62"/>
<path fillRule="evenodd" clip-rule="evenodd" d="M46.1146 9.06491L45.426 8.3714C43.5247 6.45632 43.5247 3.35138 45.426 1.43631C47.3274 -0.478766 50.4101 -0.478766 52.3115 1.43631L53 2.12981L53.6885 1.4363C55.5899 -0.478768 58.6726 -0.478766 60.574 1.43631C62.4754 3.35138 62.4754 6.45633 60.574 8.3714L59.8855 9.06491L53 16L46.1146 9.06491Z" fill="#5C5F62"/>
<path fillRule="evenodd" clip-rule="evenodd" d="M68.1146 9.06491L67.426 8.3714C65.5247 6.45632 65.5247 3.35138 67.426 1.43631C69.3274 -0.478766 72.4101 -0.478766 74.3115 1.43631L75 2.12981L75.6885 1.4363C77.5899 -0.478768 80.6726 -0.478766 82.574 1.43631C84.4754 3.35138 84.4754 6.45633 82.574 8.3714L81.8855 9.06491L75 16L68.1146 9.06491Z" fill="#5C5F62"/>
<path fillRule="evenodd" clip-rule="evenodd" d="M90.1146 9.06491L89.426 8.3714C87.5247 6.45632 87.5247 3.35138 89.426 1.43631C91.3274 -0.478766 94.4101 -0.478766 96.3115 1.43631L97 2.12981L97.6885 1.4363C99.5899 -0.478768 102.673 -0.478766 104.574 1.43631C106.475 3.35138 106.475 6.45633 104.574 8.3714L103.885 9.06491L97 16L90.1146 9.06491Z" fill="#5C5F62"/>
</svg>
