<svg width="92" height="16" viewBox="0 0 92 16" fill="none" xmlns="http://www.w3.org/2000/svg">
<path d="M7.46127 0.550632L5.4308 4.70529L0.838818 5.36128C0.0266305 5.48624 -0.285749 6.48585 0.307772 7.07938L3.58776 10.2969L2.80681 14.8264C2.68186 15.6386 3.55652 16.2633 4.275 15.8885L8.36717 13.7331L12.4281 15.8885C13.1466 16.2633 14.0213 15.6386 13.8963 14.8264L13.1153 10.2969L16.3953 7.07938C16.9889 6.48585 16.6765 5.48624 15.8643 5.36128L11.3035 4.70529L9.24184 0.550632C8.89822 -0.167842 7.83613 -0.19908 7.46127 0.550632Z" fill="#5C5F62"/>
<path d="M26.1644 0.550632L24.1339 4.70529L19.5419 5.36128C18.7298 5.48624 18.4174 6.48585 19.0109 7.07938L22.2909 10.2969L21.5099 14.8264C21.385 15.6386 22.2596 16.2633 22.9781 15.8885L27.0703 13.7331L31.1312 15.8885C31.8497 16.2633 32.7244 15.6386 32.5994 14.8264L31.8185 10.2969L35.0985 7.07938C35.692 6.48585 35.3796 5.48624 34.5674 5.36128L30.0067 4.70529L27.945 0.550632C27.6013 -0.167842 26.5393 -0.19908 26.1644 0.550632Z" fill="#5C5F62"/>
<path d="M44.8675 0.550632L42.837 4.70529L38.245 5.36128C37.4328 5.48624 37.1205 6.48585 37.714 7.07938L40.994 10.2969L40.213 14.8264C40.0881 15.6386 40.9627 16.2633 41.6812 15.8885L45.7734 13.7331L49.8343 15.8885C50.5528 16.2633 51.4275 15.6386 51.3025 14.8264L50.5216 10.2969L53.8016 7.07938C54.3951 6.48585 54.0827 5.48624 53.2705 5.36128L48.7098 4.70529L46.6481 0.550632C46.3044 -0.167842 45.2423 -0.19908 44.8675 0.550632Z" fill="#5C5F62"/>
<path d="M63.5706 0.550632L61.5401 4.70529L56.9481 5.36128C56.1359 5.48624 55.8236 6.48585 56.4171 7.07938L59.6971 10.2969L58.9161 14.8264C58.7912 15.6386 59.6658 16.2633 60.3843 15.8885L64.4765 13.7331L68.5374 15.8885C69.2559 16.2633 70.1306 15.6386 70.0056 14.8264L69.2247 10.2969L72.5047 7.07938C73.0982 6.48585 72.7858 5.48624 71.9736 5.36128L67.4129 4.70529L65.3512 0.550632C65.0075 -0.167842 63.9454 -0.19908 63.5706 0.550632Z" fill="#5C5F62"/>
<path d="M82.2737 0.550632L80.2432 4.70529L75.6513 5.36128C74.8391 5.48624 74.5267 6.48585 75.1202 7.07938L78.4002 10.2969L77.6193 14.8264C77.4943 15.6386 78.369 16.2633 79.0874 15.8885L83.1796 13.7331L87.2406 15.8885C87.959 16.2633 88.8337 15.6386 88.7087 14.8264L87.9278 10.2969L91.2078 7.07938C91.8013 6.48585 91.4889 5.48624 90.6767 5.36128L86.116 4.70529L84.0543 0.550632C83.7107 -0.167842 82.6486 -0.19908 82.2737 0.550632Z" fill="#5C5F62"/>
</svg>
